<svg id="Layer_1" data-name="Layer 1" xmlns="http://www.w3.org/2000/svg" viewBox="0 0 130.72 205.39"><defs><style>.cls-1{fill:none;}.cls-1,.cls-2,.cls-3{stroke:blue;stroke-miterlimit:10;stroke-width:6px;}.cls-2{fill:blue;}.cls-3{fill:#fff;}</style></defs><title>band_m8_icon</title><path class="cls-1" d="M216,307.37s20-.81,16.53-12.94-20-10.51-20-10.51c-33.93,21,3.91,27.9,3.91,27.9,47.85,8.09,41.76-22.64,41.76-22.64L216.43,159.79s-6.52-24.66,23.93-36.79c0,0,11.31,1.62,18.26,29.92s-27,42.86-27,42.86L198.6,216s-17.4,17.79-11.31,25.06c0,0-3.48,11.32,21.75,21.84s38.28,1.61,38.28,1.61,20-3.23,21.74-13.74-.87-18.6-27-23.45c0,0-25.23.81-24.36,16.17s14.79,12.13,14.79,12.13" transform="translate(-183 -110.78)"/><path class="cls-2" d="M195,113.78s131.72,6.1,55.57,98.4c0,0,113.7,17.72,28.38,65.69l-23,13.47" transform="translate(-183 -110.78)"/><path class="cls-3" d="M212,135l26,61s41-34,20-50-43-11-43-11Z" transform="translate(-183 -110.78)"/><path class="cls-3" d="M248,230l21,41,21-25S270,219,248,230Z" transform="translate(-183 -110.78)"/></svg>